<?xml version="1.0" encoding="UTF-8" standalone="no"?>
<!-- Created with Inkscape (http://www.inkscape.org/) -->

<svg
   xmlns:dc="http://purl.org/dc/elements/1.1/"
   xmlns:cc="http://creativecommons.org/ns#"
   xmlns:rdf="http://www.w3.org/1999/02/22-rdf-syntax-ns#"
   xmlns:svg="http://www.w3.org/2000/svg"
   xmlns="http://www.w3.org/2000/svg"
   xmlns:sodipodi="http://sodipodi.sourceforge.net/DTD/sodipodi-0.dtd"
   xmlns:inkscape="http://www.inkscape.org/namespaces/inkscape"
   width="137.70735mm"
   height="12.9949mm"
   viewBox="0 0 137.70735 12.9949"
   version="1.1"
   id="svg8"
   inkscape:version="0.92.4 (5da689c313, 2019-01-14)"
   sodipodi:docname="matrix5.svg">
  <defs
     id="defs2" />
  <sodipodi:namedview
     id="base"
     pagecolor="#ffffff"
     bordercolor="#666666"
     borderopacity="1.0"
     inkscape:pageopacity="0.0"
     inkscape:pageshadow="2"
     inkscape:zoom="1.979899"
     inkscape:cx="46.835001"
     inkscape:cy="-10.690824"
     inkscape:document-units="mm"
     inkscape:current-layer="layer1"
     showgrid="false"
     showguides="true"
     inkscape:guide-bbox="true"
     inkscape:window-width="1366"
     inkscape:window-height="705"
     inkscape:window-x="-8"
     inkscape:window-y="-8"
     inkscape:window-maximized="1" />
  <metadata
     id="metadata5">
    <rdf:RDF>
      <cc:Work
         rdf:about="">
        <dc:format>image/svg+xml</dc:format>
        <dc:type
           rdf:resource="http://purl.org/dc/dcmitype/StillImage" />
        <dc:title></dc:title>
      </cc:Work>
    </rdf:RDF>
  </metadata>
  <g
     inkscape:label="Layer 1"
     inkscape:groupmode="layer"
     id="layer1"
     transform="translate(-27.026799,-36.284552)">
    <g
       aria-label="N(AD - BC) mod 26 = 1"
       style="font-style:normal;font-variant:normal;font-weight:normal;font-stretch:normal;font-size:14.11111069px;line-height:1.25;font-family:'Gill Sans Nova';-inkscape-font-specification:'Gill Sans Nova';letter-spacing:0px;word-spacing:0px;fill:#000000;fill-opacity:1;stroke:none;stroke-width:0.26458332"
       id="text104">
      <path
         d="m 34.612899,36.408576 h 1.329807 v 9.625596 h -1.198893 l -6.394097,-7.406955 v 7.406955 h -1.322917 v -9.625596 h 1.136882 l 6.449218,7.468966 z"
         style="stroke-width:0.26458332"
         id="path191" />
      <path
         d="m 39.374021,42.816453 q 0,1.860351 0.537434,3.527778 0.537435,1.667426 1.495172,2.935221 H 40.628035 Q 39.456703,47.880743 38.685001,46.30978 37.92019,44.738816 37.92019,42.788892 q 0,-1.316026 0.330729,-2.404676 0.33073,-1.095541 0.909506,-2.039497 0.578776,-0.943956 1.46761,-2.060167 h 0.778592 q -1.06109,1.508952 -1.550293,3.004123 -0.482313,1.495172 -0.482313,3.527778 z"
         style="stroke-width:0.26458332"
         id="path193" />
      <path
         d="m 49.592173,46.034172 -1.281575,-2.838759 h -4.092773 l -1.212674,2.838759 h -1.412489 l 4.134114,-9.680718 h 0.971517 l 4.306369,9.680718 z m -3.396864,-7.565429 -1.44005,3.486436 h 2.990343 z"
         style="stroke-width:0.26458332"
         id="path195" />
      <path
         d="m 60.926538,41.107686 q 0,1.46761 -0.661458,2.583821 -0.654568,1.116211 -1.832791,1.729438 -1.178222,0.613227 -2.687174,0.613227 h -3.665582 v -9.625596 h 3.651802 q 1.577853,0 2.749186,0.606336 1.171332,0.606337 1.80523,1.674317 0.640787,1.067979 0.640787,2.418457 z m -1.426269,0.04134 q 0,-1.605415 -1.026639,-2.556261 -1.019748,-0.957736 -2.997233,-0.957736 h -2.018825 v 7.158908 h 2.218641 q 1.81901,0 2.818088,-0.957737 1.005968,-0.964627 1.005968,-2.687174 z"
         style="stroke-width:0.26458332"
         id="path197" />
      <path
         d="m 66.052838,43.581264 v -1.343587 h 3.431315 v 1.343587 z"
         style="stroke-width:0.26458332"
         id="path199" />
      <path
         d="m 80.790957,38.909715 q 0,1.426269 -1.46761,2.032606 1.061089,0.192925 1.681206,0.875054 0.620117,0.675239 0.620117,1.591634 0,0.902615 -0.502983,1.495172 -0.496094,0.592556 -1.295356,0.861274 -0.799262,0.268717 -1.715658,0.268717 h -3.073025 v -9.625596 h 2.776747 q 1.426269,0 2.197971,0.695909 0.778591,0.689019 0.778591,1.80523 z m -1.426269,0.110243 q 0,-0.73036 -0.413412,-1.06109 -0.413411,-0.337619 -1.364257,-0.337619 h -1.185113 v 2.935221 h 0.978407 q 1.012858,0 1.495171,-0.434082 0.489204,-0.440972 0.489204,-1.10243 z m 0.833713,4.265028 q 0,-1.543403 -2.397786,-1.543403 h -1.398709 v 3.079915 h 1.45383 q 1.198893,0 1.770779,-0.37207 0.571886,-0.37896 0.571886,-1.164442 z"
         style="stroke-width:0.26458332"
         id="path201" />
      <path
         d="m 91.126244,37.076924 v 1.44694 q -1.701877,-0.957736 -3.327962,-0.957736 -1.129992,0 -1.998156,0.516764 -0.868164,0.516764 -1.343587,1.364258 -0.468533,0.840603 -0.468533,1.80523 0,0.957736 0.454753,1.791449 0.461642,0.833713 1.322916,1.336697 0.861274,0.496094 2.018826,0.496094 1.819011,0 3.445096,-1.07487 v 1.515842 q -1.584744,0.840603 -3.500217,0.840603 -1.681207,0 -2.852539,-0.73036 -1.171333,-0.73725 -1.750109,-1.860351 -0.578776,-1.129992 -0.578776,-2.328885 0,-1.384928 0.69591,-2.52181 0.702799,-1.136881 1.901692,-1.784559 1.198893,-0.647678 2.611382,-0.647678 1.619195,0 3.369304,0.792372 z"
         style="stroke-width:0.26458332"
         id="path203" />
      <path
         d="m 94.061462,42.761331 q 0,-1.860351 -0.516764,-3.507107 -0.509875,-1.646755 -1.508952,-2.969672 h 0.771701 q 1.033529,1.295356 1.557183,2.115289 0.530545,0.819932 0.840604,1.874132 0.310058,1.047309 0.310058,2.514919 0,1.846571 -0.682129,3.348633 -0.682129,1.502062 -2.025716,3.141927 h -0.771701 q 1.054199,-1.550293 1.536512,-3.038574 0.489204,-1.488281 0.489204,-3.479547 z"
         style="stroke-width:0.26458332"
         id="path205" />
      <path
         d="m 106.26399,40.714945 q 0.6339,-0.633898 1.08176,-0.888835 0.45475,-0.254937 1.00597,-0.254937 1.03353,0 1.57096,0.654568 0.54433,0.654568 0.54433,1.825901 v 3.98253 h -1.24024 v -3.879177 q 0,-0.737251 -0.34451,-1.123101 -0.34451,-0.385851 -0.96462,-0.385851 -0.3514,0 -0.73725,0.213596 -0.37896,0.206706 -0.68902,0.571886 v 4.602647 h -1.24024 v -3.796495 q 0,-0.833713 -0.30317,-1.219564 -0.30316,-0.385851 -0.94395,-0.385851 -0.43408,0 -0.79926,0.206706 -0.35829,0.199816 -0.69591,0.592557 v 4.602647 h -1.24024 v -6.338975 h 1.24024 v 0.833713 q 0.50987,-0.502984 0.94395,-0.730361 0.44098,-0.227376 0.95085,-0.227376 0.60634,0 1.08865,0.282498 0.4892,0.282498 0.7717,0.861274 z"
         style="stroke-width:0.26458332"
         id="path207" />
      <path
         d="m 118.60432,42.871574 q 0,1.088651 -0.51676,1.832791 -0.51676,0.737251 -1.29536,1.095541 -0.7717,0.358289 -1.59163,0.358289 -1.0542,0 -1.8259,-0.475423 -0.7717,-0.482313 -1.15755,-1.226454 -0.38585,-0.75103 -0.38585,-1.543402 0,-0.943956 0.4203,-1.701877 0.42719,-0.764812 1.19889,-1.198894 0.77859,-0.440972 1.79145,-0.440972 0.95085,0 1.71566,0.420302 0.7717,0.413411 1.20578,1.164442 0.44097,0.744141 0.44097,1.715657 z m -5.49148,0 q 0,0.992188 0.59945,1.577854 0.59944,0.585666 1.51584,0.585666 0.93018,0 1.50895,-0.613227 0.57878,-0.620117 0.57878,-1.564073 0,-1.054199 -0.62701,-1.605414 -0.62701,-0.551216 -1.52962,-0.551216 -0.88884,0 -1.46761,0.592557 -0.57878,0.592556 -0.57878,1.577853 z"
         style="stroke-width:0.26458332"
         id="path209" />
      <path
         d="m 122.89002,46.034172 q -1.14377,0 -1.87413,-0.468533 -0.72347,-0.475423 -1.0542,-1.185113 -0.33073,-0.71658 -0.33073,-1.481391 0,-1.040419 0.4272,-1.791449 0.43408,-0.757921 1.15066,-1.143772 0.72347,-0.392741 1.55029,-0.392741 0.66835,0 1.37115,0.254937 v -3.417534 h 1.25401 v 9.625596 z m 0.25494,-1.10243 h 0.9853 v -3.96186 q -0.55122,-0.296278 -1.25402,-0.296278 -0.87505,0 -1.42627,0.592556 -0.55121,0.592556 -0.55121,1.646756 0,0.964626 0.58567,1.495171 0.58566,0.523655 1.66053,0.523655 z"
         style="stroke-width:0.26458332"
         id="path211" />
      <path
         d="m 136.1123,39.247334 q 0,1.226454 -0.77859,2.487359 -0.7717,1.254015 -1.94304,2.659614 -0.0551,0.08957 -0.13091,0.158474 -0.0689,0.0689 -0.12402,0.151584 h 3.66558 v 1.329807 h -6.09093 v -0.09646 l 0.24805,-0.282497 q 1.35736,-1.42627 2.56315,-3.114367 1.20578,-1.688096 1.20578,-3.093695 0,-0.682129 -0.2825,-1.08176 -0.28249,-0.399631 -0.66145,-0.558106 -0.37897,-0.158474 -0.71658,-0.158474 -0.59256,0 -1.15756,0.3514 -0.56499,0.344509 -1.00596,0.950846 v -1.750109 q 1.10243,-0.916395 2.32888,-0.916395 0.81993,0 1.4745,0.378961 0.65457,0.37896 1.02664,1.061089 0.37896,0.675239 0.37896,1.522732 z"
         style="stroke-width:0.26458332"
         id="path213" />
      <path
         d="m 139.59874,40.866529 q 0.71658,-0.392741 1.56407,-0.392741 0.70969,0 1.32292,0.330729 0.61323,0.330729 0.9853,0.964627 0.37207,0.627007 0.37207,1.488281 0,0.799262 -0.35829,1.467611 -0.35829,0.661458 -1.02664,1.047309 -0.66146,0.38585 -1.50895,0.38585 -0.9164,0 -1.59853,-0.420301 -0.68213,-0.420302 -1.06798,-1.205784 -0.37896,-0.785481 -0.37896,-1.83968 0,-1.881023 0.97152,-3.493327 0.97841,-1.619195 2.8801,-2.914551 l 0.83371,1.054199 q -1.07487,0.682129 -1.86724,1.564074 -0.78548,0.881944 -1.1231,1.963704 z m 1.37115,4.010091 q 0.68902,0 1.08865,-0.413411 0.40652,-0.420302 0.40652,-1.164443 0,-0.72347 -0.46165,-1.136881 -0.46164,-0.420302 -1.192,-0.420302 -0.56499,0 -1.04731,0.254937 -0.47542,0.254937 -0.47542,1.019749 0,0.647677 0.26872,1.067979 0.26871,0.413412 0.65457,0.606337 0.38585,0.186035 0.75792,0.186035 z"
         style="stroke-width:0.26458332"
         id="path215" />
      <path
         d="m 155.37727,40.108608 h -6.49056 v -1.240234 h 6.49056 z m 0,3.355523 h -6.49056 v -1.240234 h 6.49056 z"
         style="stroke-width:0.26458332"
         id="path217" />
      <path
         d="m 163.35611,46.034172 v -7.379394 l -1.73632,1.398708 -0.81994,-0.992187 3.41754,-2.776747 h 0.51676 v 9.74962 z"
         style="stroke-width:0.26458332"
         id="path219" />
    </g>
  </g>
</svg>
