<?xml version="1.0" encoding="UTF-8" standalone="no"?>
<!-- Created with Inkscape (http://www.inkscape.org/) -->

<svg
   xmlns:dc="http://purl.org/dc/elements/1.1/"
   xmlns:cc="http://creativecommons.org/ns#"
   xmlns:rdf="http://www.w3.org/1999/02/22-rdf-syntax-ns#"
   xmlns:svg="http://www.w3.org/2000/svg"
   xmlns="http://www.w3.org/2000/svg"
   xmlns:sodipodi="http://sodipodi.sourceforge.net/DTD/sodipodi-0.dtd"
   xmlns:inkscape="http://www.inkscape.org/namespaces/inkscape"
   width="101.92479mm"
   height="33.146999mm"
   viewBox="0 0 101.92479 33.146999"
   version="1.1"
   id="svg8"
   inkscape:version="0.92.4 (5da689c313, 2019-01-14)"
   sodipodi:docname="matrix4.svg">
  <defs
     id="defs2" />
  <sodipodi:namedview
     id="base"
     pagecolor="#ffffff"
     bordercolor="#666666"
     borderopacity="1.0"
     inkscape:pageopacity="0.0"
     inkscape:pageshadow="2"
     inkscape:zoom="1.979899"
     inkscape:cx="204.94169"
     inkscape:cy="23.239928"
     inkscape:document-units="mm"
     inkscape:current-layer="layer1"
     showgrid="false"
     showguides="true"
     inkscape:guide-bbox="true"
     inkscape:window-width="1366"
     inkscape:window-height="705"
     inkscape:window-x="-8"
     inkscape:window-y="-8"
     inkscape:window-maximized="1" />
  <metadata
     id="metadata5">
    <rdf:RDF>
      <cc:Work
         rdf:about="">
        <dc:format>image/svg+xml</dc:format>
        <dc:type
           rdf:resource="http://purl.org/dc/dcmitype/StillImage" />
        <dc:title />
      </cc:Work>
    </rdf:RDF>
  </metadata>
  <g
     inkscape:label="Layer 1"
     inkscape:groupmode="layer"
     id="layer1"
     transform="translate(-24.726337,-25.109964)">
    <g
       aria-label="A B
C D"
       style="font-style:normal;font-variant:normal;font-weight:normal;font-stretch:normal;font-size:14.11111069px;line-height:1.25;font-family:'Gill Sans Nova';-inkscape-font-specification:'Gill Sans Nova';letter-spacing:0px;word-spacing:0px;fill:#000000;fill-opacity:1;stroke:none;stroke-width:0.26458332"
       id="text12">
      <path
         d="m 47.863243,37.748817 -1.281576,-2.838758 h -4.092773 l -1.212674,2.838758 h -1.412489 l 4.134115,-9.680718 h 0.971517 l 4.306369,9.680718 z m -3.396864,-7.565429 -1.44005,3.486437 h 2.990343 z"
         style="stroke-width:0.26458332"
         id="path395" />
      <path
         d="m 60.01754,30.62436 q 0,1.42627 -1.467611,2.032606 1.06109,0.192926 1.681207,0.875055 0.620117,0.675238 0.620117,1.591634 0,0.902615 -0.502984,1.495171 -0.496094,0.592557 -1.295356,0.861274 -0.799262,0.268717 -1.715657,0.268717 h -3.073025 v -9.625596 h 2.776746 q 1.42627,0 2.197971,0.695909 0.778592,0.689019 0.778592,1.80523 z m -1.42627,0.110243 q 0,-0.73036 -0.413411,-1.061089 -0.413412,-0.337619 -1.364258,-0.337619 h -1.185113 v 2.935221 h 0.978407 q 1.012858,0 1.495172,-0.434082 0.489203,-0.440972 0.489203,-1.102431 z m 0.833713,4.265028 q 0,-1.543402 -2.397786,-1.543402 h -1.398709 v 3.079915 h 1.453831 q 1.198893,0 1.770779,-0.37207 0.571885,-0.378961 0.571885,-1.164443 z"
         style="stroke-width:0.26458332"
         id="path397" />
      <path
         d="m 49.075916,46.430458 v 1.44694 q -1.701877,-0.957737 -3.327962,-0.957737 -1.129991,0 -1.998155,0.516765 -0.868164,0.516764 -1.343587,1.364257 -0.468533,0.840604 -0.468533,1.80523 0,0.957737 0.454752,1.79145 0.461643,0.833713 1.322917,1.336697 0.861274,0.496094 2.018826,0.496094 1.81901,0 3.445095,-1.07487 v 1.515842 q -1.584744,0.840603 -3.500217,0.840603 -1.681206,0 -2.852539,-0.73036 -1.171332,-0.73725 -1.750108,-1.860351 -0.578776,-1.129992 -0.578776,-2.328885 0,-1.384928 0.695909,-2.52181 0.7028,-1.136881 1.901693,-1.784559 1.198893,-0.647678 2.611382,-0.647678 1.619195,0 3.369303,0.792372 z"
         style="stroke-width:0.26458332"
         id="path399" />
      <path
         d="m 63.63489,50.461219 q 0,1.467611 -0.661459,2.583822 -0.654568,1.116211 -1.832791,1.729438 -1.178222,0.613227 -2.687174,0.613227 h -3.665581 v -9.625597 h 3.651801 q 1.577853,0 2.749186,0.606337 1.171332,0.606337 1.80523,1.674316 0.640788,1.06798 0.640788,2.418457 z m -1.42627,0.04134 q 0,-1.605415 -1.026638,-2.556261 -1.019749,-0.957737 -2.997233,-0.957737 h -2.018826 v 7.158908 h 2.218641 q 1.819011,0 2.818088,-0.957736 1.005968,-0.964627 1.005968,-2.687174 z"
         style="stroke-width:0.26458332"
         id="path401" />
    </g>
    <g
       aria-label="[      ]"
       transform="scale(0.6201252,1.6125776)"
       style="font-style:normal;font-variant:normal;font-weight:normal;font-stretch:normal;font-size:22.75526237px;line-height:1.25;font-family:'Gill Sans Nova';-inkscape-font-specification:'Gill Sans Nova';letter-spacing:0px;word-spacing:0px;fill:#000000;fill-opacity:1;stroke:none;stroke-width:0.42666107"
       id="text18">
      <path
         d="m 60.747849,17.415742 v 16.888671 h 3.111071 v 1.822199 H 58.558989 V 15.571321 h 5.299931 v 1.844421 z"
         style="stroke-width:0.42666107"
         id="path390" />
      <path
         d="m 102.41398,36.126612 v -1.822199 h 3.08885 V 17.39352 h -3.08885 v -1.822199 h 5.27771 v 20.555291 z"
         style="stroke-width:0.42666107"
         id="path392" />
    </g>
    <g
       aria-label="det"
       style="font-style:normal;font-variant:normal;font-weight:normal;font-stretch:normal;font-size:8.46666622px;line-height:1.25;font-family:'Gill Sans Nova';-inkscape-font-specification:'Gill Sans Nova';letter-spacing:0px;word-spacing:0px;fill:#000000;fill-opacity:1;stroke:none;stroke-width:0.26458332"
       id="text84">
      <path
         d="m 26.681773,43.59779 q -0.686263,0 -1.124479,-0.28112 -0.434082,-0.285254 -0.63252,-0.711068 -0.198437,-0.429948 -0.198437,-0.888834 0,-0.624252 0.256315,-1.07487 0.260449,-0.454753 0.690397,-0.686263 0.434082,-0.235645 0.930175,-0.235645 0.40101,0 0.822689,0.152963 v -2.050521 h 0.752409 v 5.775358 z m 0.152962,-0.661459 h 0.591178 v -2.377115 q -0.330729,-0.177767 -0.752409,-0.177767 -0.525032,0 -0.855761,0.355534 -0.330729,0.355533 -0.330729,0.988053 0,0.578776 0.351399,0.897103 0.3514,0.314192 0.996322,0.314192 z"
         style="font-size:8.46666622px;stroke-width:0.26458332"
         id="path383" />
      <path
         d="m 32.477801,41.683695 v 0.07855 h -2.674772 q 0.04134,0.541569 0.367936,0.868164 0.326595,0.322461 0.859896,0.322461 0.363802,0 0.719336,-0.115755 0.355534,-0.11989 0.661458,-0.347266 v 0.735872 q -0.363802,0.243913 -0.715202,0.347266 -0.3514,0.09922 -0.768945,0.09922 -0.51263,0 -0.946712,-0.243913 -0.429948,-0.243913 -0.686263,-0.694531 -0.252181,-0.454753 -0.252181,-1.066602 0,-0.549837 0.219108,-0.992187 0.219108,-0.446484 0.620117,-0.698665 0.405143,-0.256316 0.938444,-0.256316 0.471289,0 0.847493,0.235645 0.380339,0.23151 0.595313,0.677995 0.214974,0.44235 0.214974,1.050065 z m -1.666048,-1.310514 q -0.396875,0 -0.677995,0.272851 -0.28112,0.268718 -0.314193,0.665593 h 1.914095 q -0.0248,-0.438217 -0.264583,-0.686263 -0.235645,-0.252181 -0.657324,-0.252181 z"
         style="font-size:8.46666622px;stroke-width:0.26458332"
         id="path385" />
      <path
         d="m 34.201726,39.794405 h 1.203027 v 0.677994 H 34.201726 V 42.2418 q 0,0.347266 0.103353,0.549837 0.107487,0.198438 0.429948,0.198438 0.44235,0 0.86403,-0.272852 v 0.7028 q -0.194304,0.119889 -0.471289,0.186035 -0.272852,0.06615 -0.504362,0.06615 -0.58291,0 -0.880567,-0.330729 -0.293522,-0.334864 -0.293522,-1.099675 v -1.769401 h -0.661458 v -0.07441 l 1.397331,-1.389062 h 0.01654 z"
         style="font-size:8.46666622px;stroke-width:0.26458332"
         id="path387" />
    </g>
    <g
       aria-label="="
       style="font-style:normal;font-variant:normal;font-weight:normal;font-stretch:normal;font-size:14.11111069px;line-height:1.25;font-family:'Gill Sans Nova';-inkscape-font-specification:'Gill Sans Nova';letter-spacing:0px;word-spacing:0px;fill:#000000;fill-opacity:1;stroke:none;stroke-width:0.26458332"
       id="text88">
      <path
         d="m 75.644347,40.344921 h -6.49056 v -1.240234 h 6.49056 z m 0,3.355523 h -6.49056 v -1.240235 h 6.49056 z"
         style="stroke-width:0.26458332"
         id="path380" />
    </g>
    <g
       aria-label="AD - BC"
       style="font-style:normal;font-variant:normal;font-weight:normal;font-stretch:normal;font-size:14.11111069px;line-height:1.25;font-family:'Gill Sans Nova';-inkscape-font-specification:'Gill Sans Nova';letter-spacing:0px;word-spacing:0px;fill:#000000;fill-opacity:1;stroke:none;stroke-width:0.26458332"
       id="text104">
      <path
         d="m 85.013702,45.633266 -1.281575,-2.838758 h -4.092774 l -1.212673,2.838758 h -1.412489 l 4.134114,-9.680718 h 0.971517 l 4.306369,9.680718 z m -3.396864,-7.565429 -1.44005,3.486437 h 2.990343 z"
         style="stroke-width:0.26458332"
         id="path369" />
      <path
         d="m 96.348066,40.70678 q 0,1.467611 -0.661458,2.583822 -0.654568,1.11621 -1.832791,1.729437 -1.178222,0.613227 -2.687174,0.613227 H 87.501061 V 36.00767 h 3.651801 q 1.577854,0 2.749187,0.606337 1.171332,0.606337 1.80523,1.674316 0.640787,1.06798 0.640787,2.418457 z m -1.426269,0.04134 q 0,-1.605414 -1.026639,-2.556261 -1.019748,-0.957736 -2.997233,-0.957736 h -2.018826 v 7.158908 h 2.218642 q 1.81901,0 2.818088,-0.957736 1.005968,-0.964627 1.005968,-2.687175 z"
         style="stroke-width:0.26458332"
         id="path371" />
      <path
         d="m 101.47437,43.180359 v -1.343588 h 3.43131 v 1.343588 z"
         style="stroke-width:0.26458332"
         id="path373" />
      <path
         d="m 116.21249,38.508809 q 0,1.42627 -1.46762,2.032606 1.06109,0.192926 1.68121,0.875055 0.62012,0.675238 0.62012,1.591634 0,0.902615 -0.50299,1.495171 -0.49609,0.592557 -1.29535,0.861274 -0.79926,0.268717 -1.71566,0.268717 h -3.07302 V 36.00767 h 2.77674 q 1.42627,0 2.19797,0.695909 0.7786,0.689019 0.7786,1.80523 z m -1.42627,0.110243 q 0,-0.73036 -0.41342,-1.061089 -0.41341,-0.337619 -1.36425,-0.337619 h -1.18512 v 2.935221 h 0.97841 q 1.01286,0 1.49517,-0.434082 0.48921,-0.440972 0.48921,-1.102431 z m 0.83371,4.265028 q 0,-1.543402 -2.39779,-1.543402 h -1.39871 v 3.079915 h 1.45383 q 1.1989,0 1.77078,-0.37207 0.57189,-0.378961 0.57189,-1.164443 z"
         style="stroke-width:0.26458332"
         id="path375" />
      <path
         d="m 126.54777,36.676018 v 1.446941 q -1.70188,-0.957737 -3.32796,-0.957737 -1.12999,0 -1.99816,0.516764 -0.86816,0.516765 -1.34358,1.364258 -0.46854,0.840603 -0.46854,1.80523 0,0.957737 0.45476,1.79145 0.46164,0.833713 1.32291,1.336697 0.86128,0.496093 2.01883,0.496093 1.81901,0 3.44509,-1.074869 v 1.515842 q -1.58474,0.840603 -3.50021,0.840603 -1.68121,0 -2.85254,-0.73036 -1.17133,-0.737251 -1.75011,-1.860352 -0.57878,-1.129991 -0.57878,-2.328884 0,-1.384929 0.69591,-2.52181 0.7028,-1.136882 1.9017,-1.78456 1.19889,-0.647677 2.61138,-0.647677 1.61919,0 3.3693,0.792371 z"
         style="stroke-width:0.26458332"
         id="path377" />
    </g>
  </g>
</svg>
