<?xml version="1.0" encoding="UTF-8" standalone="no"?>
<!-- Created with Inkscape (http://www.inkscape.org/) -->

<svg
   xmlns:dc="http://purl.org/dc/elements/1.1/"
   xmlns:cc="http://creativecommons.org/ns#"
   xmlns:rdf="http://www.w3.org/1999/02/22-rdf-syntax-ns#"
   xmlns:svg="http://www.w3.org/2000/svg"
   xmlns="http://www.w3.org/2000/svg"
   xmlns:sodipodi="http://sodipodi.sourceforge.net/DTD/sodipodi-0.dtd"
   xmlns:inkscape="http://www.inkscape.org/namespaces/inkscape"
   width="91.029472mm"
   height="33.321285mm"
   viewBox="0 0 91.029472 33.321285"
   version="1.1"
   id="svg8"
   inkscape:version="0.92.4 (5da689c313, 2019-01-14)"
   sodipodi:docname="matrix1.svg">
  <defs
     id="defs2" />
  <sodipodi:namedview
     id="base"
     pagecolor="#ffffff"
     bordercolor="#666666"
     borderopacity="1.0"
     inkscape:pageopacity="0.0"
     inkscape:pageshadow="2"
     inkscape:zoom="0.35"
     inkscape:cx="-292.29762"
     inkscape:cy="-342.68733"
     inkscape:document-units="mm"
     inkscape:current-layer="layer1"
     showgrid="false"
     showguides="true"
     inkscape:guide-bbox="true"
     inkscape:window-width="1366"
     inkscape:window-height="705"
     inkscape:window-x="-8"
     inkscape:window-y="-8"
     inkscape:window-maximized="1" />
  <metadata
     id="metadata5">
    <rdf:RDF>
      <cc:Work
         rdf:about="">
        <dc:format>image/svg+xml</dc:format>
        <dc:type
           rdf:resource="http://purl.org/dc/dcmitype/StillImage" />
        <dc:title />
      </cc:Work>
    </rdf:RDF>
  </metadata>
  <g
     inkscape:label="Layer 1"
     inkscape:groupmode="layer"
     id="layer1"
     transform="translate(-24.420412,-24.842694)">
    <g
       aria-label="A B
C D"
       style="font-style:normal;font-variant:normal;font-weight:normal;font-stretch:normal;font-size:14.11111069px;line-height:1.25;font-family:'Gill Sans Nova';-inkscape-font-specification:'Gill Sans Nova';letter-spacing:0px;word-spacing:0px;fill:#000000;fill-opacity:1;stroke:none;stroke-width:0.26458332"
       id="text12">
      <path
         d="M 35.969749,37.481548 34.688174,34.64279 H 30.5954 l -1.212673,2.838758 h -1.412489 l 4.134114,-9.680718 h 0.971517 l 4.306369,9.680718 z m -3.396864,-7.565429 -1.44005,3.486436 h 2.990343 z"
         style="stroke-width:0.26458332"
         id="path479" />
      <path
         d="m 48.124046,30.357091 q 0,1.42627 -1.46761,2.032606 1.061089,0.192926 1.681206,0.875055 0.620117,0.675238 0.620117,1.591634 0,0.902615 -0.502984,1.495171 -0.496093,0.592556 -1.295355,0.861274 -0.799263,0.268717 -1.715658,0.268717 h -3.073025 v -9.625596 h 2.776747 q 1.426269,0 2.197971,0.695909 0.778591,0.689019 0.778591,1.80523 z m -1.426269,0.110243 q 0,-0.73036 -0.413412,-1.061089 -0.413411,-0.33762 -1.364257,-0.33762 h -1.185113 v 2.935222 h 0.978407 q 1.012858,0 1.495171,-0.434082 0.489204,-0.440973 0.489204,-1.102431 z m 0.833713,4.265028 q 0,-1.543403 -2.397787,-1.543403 h -1.398708 v 3.079916 h 1.45383 q 1.198893,0 1.770779,-0.372071 0.571886,-0.37896 0.571886,-1.164442 z"
         style="stroke-width:0.26458332"
         id="path481" />
      <path
         d="m 37.182423,46.163189 v 1.44694 q -1.701877,-0.957737 -3.327962,-0.957737 -1.129992,0 -1.998156,0.516765 -0.868164,0.516764 -1.343587,1.364257 -0.468533,0.840604 -0.468533,1.80523 0,0.957737 0.454753,1.79145 0.461643,0.833713 1.322916,1.336697 0.861274,0.496094 2.018826,0.496094 1.819011,0 3.445096,-1.07487 v 1.515842 q -1.584744,0.840603 -3.500217,0.840603 -1.681207,0 -2.852539,-0.73036 -1.171333,-0.737251 -1.750109,-1.860352 -0.578776,-1.129991 -0.578776,-2.328884 0,-1.384928 0.69591,-2.52181 0.702799,-1.136881 1.901692,-1.784559 1.198893,-0.647678 2.611383,-0.647678 1.619194,0 3.369303,0.792372 z"
         style="stroke-width:0.26458332"
         id="path483" />
      <path
         d="m 51.741396,50.19395 q 0,1.467611 -0.661458,2.583822 -0.654569,1.116211 -1.832791,1.729438 -1.178223,0.613227 -2.687175,0.613227 H 42.894391 V 45.49484 h 3.651801 q 1.577854,0 2.749186,0.606337 1.171333,0.606337 1.80523,1.674316 0.640788,1.06798 0.640788,2.418457 z m -1.42627,0.04134 q 0,-1.605414 -1.026638,-2.55626 -1.019748,-0.957737 -2.997233,-0.957737 h -2.018826 v 7.158908 h 2.218642 q 1.81901,0 2.818088,-0.957736 1.005967,-0.964627 1.005967,-2.687175 z"
         style="stroke-width:0.26458332"
         id="path485" />
    </g>
    <g
       aria-label="[      ]"
       transform="scale(0.6201252,1.6125776)"
       style="font-style:normal;font-variant:normal;font-weight:normal;font-stretch:normal;font-size:22.75526237px;line-height:1.25;font-family:'Gill Sans Nova';-inkscape-font-specification:'Gill Sans Nova';letter-spacing:0px;word-spacing:0px;fill:#000000;fill-opacity:1;stroke:none;stroke-width:0.42666107"
       id="text18">
      <path
         d="m 41.568669,17.250001 v 16.888672 h 3.111071 v 1.822198 h -5.299931 v -20.55529 h 5.299931 v 1.84442 z"
         style="stroke-width:0.42666107"
         id="path474" />
      <path
         d="m 83.234798,35.960871 v -1.822198 h 3.088849 V 17.227779 h -3.088849 v -1.822198 h 5.27771 v 20.55529 z"
         style="stroke-width:0.42666107"
         id="path476" />
    </g>
    <g
       aria-label="X
Y "
       style="font-style:normal;font-variant:normal;font-weight:normal;font-stretch:normal;font-size:14.11111069px;line-height:1.25;font-family:'Gill Sans Nova';-inkscape-font-specification:'Gill Sans Nova';letter-spacing:0px;word-spacing:0px;fill:#000000;fill-opacity:1;stroke:none;stroke-width:0.26458332"
       id="text12-8">
      <path
         d="m 69.311775,31.702713 3.004123,-3.672471 h 1.667426 l -3.837836,4.643988 4.106554,4.981608 h -1.667426 l -3.272841,-3.98253 q -1.681206,2.018826 -3.314182,3.98253 h -1.681206 l 4.147895,-4.981608 -3.851617,-4.643988 h 1.681207 z"
         style="stroke-width:0.26458332"
         id="path469" />
      <path
         d="m 71.144566,45.66913 h 1.667426 l -3.555338,4.533745 v 5.091851 h -1.41249 V 50.202875 L 64.288826,45.66913 h 1.667426 l 2.576932,3.321072 z"
         style="stroke-width:0.26458332"
         id="path471" />
    </g>
    <g
       aria-label="[   ]"
       transform="scale(0.62390104,1.6028183)"
       style="font-style:normal;font-variant:normal;font-weight:normal;font-stretch:normal;font-size:22.6175499px;line-height:1.25;font-family:'Gill Sans Nova';-inkscape-font-specification:'Gill Sans Nova';letter-spacing:0px;word-spacing:0px;fill:#000000;fill-opacity:1;stroke:none;stroke-width:0.42407894"
       id="text18-8">
      <path
         d="m 97.832895,17.360786 v 16.786463 h 3.092245 V 35.95842 H 95.657281 V 15.527528 h 5.267859 v 1.833258 z"
         style="stroke-width:0.42407894"
         id="path464" />
      <path
         d="m 120.42836,35.95842 v -1.811171 h 3.07015 v -16.80855 h -3.07015 v -1.811171 h 5.24577 V 35.95842 Z"
         style="stroke-width:0.42407894"
         id="path466" />
    </g>
    <g
       aria-label="="
       style="font-style:normal;font-variant:normal;font-weight:normal;font-stretch:normal;font-size:14.11111069px;line-height:1.25;font-family:'Gill Sans Nova';-inkscape-font-specification:'Gill Sans Nova';letter-spacing:0px;word-spacing:0px;fill:#000000;fill-opacity:1;stroke:none;stroke-width:0.26458332"
       id="text49">
      <path
         d="m 91.03517,39.342289 h -6.490559 v -1.240235 h 6.490559 z m 0,3.355523 h -6.490559 v -1.240235 h 6.490559 z"
         style="stroke-width:0.26458332"
         id="path461" />
    </g>
    <g
       aria-label="[   ]"
       transform="scale(0.62390104,1.6028183)"
       style="font-style:normal;font-variant:normal;font-weight:normal;font-stretch:normal;font-size:22.6175499px;line-height:1.25;font-family:'Gill Sans Nova';-inkscape-font-specification:'Gill Sans Nova';letter-spacing:0px;word-spacing:0px;fill:#000000;fill-opacity:1;stroke:none;stroke-width:0.42407894"
       id="text53">
      <path
         d="m 157.20395,17.690933 v 16.786463 h 3.09224 v 1.811171 h -5.26785 V 15.857674 h 5.26785 v 1.833259 z"
         style="stroke-width:0.42407894"
         id="path456" />
      <path
         d="m 179.79941,36.288567 v -1.811171 h 3.07016 V 17.668845 h -3.07016 v -1.811171 h 5.24577 v 20.430893 z"
         style="stroke-width:0.42407894"
         id="path458" />
    </g>
    <g
       aria-label="X'
Y' "
       style="font-style:normal;font-variant:normal;font-weight:normal;font-stretch:normal;font-size:14.11111069px;line-height:1.25;font-family:'Gill Sans Nova';-inkscape-font-specification:'Gill Sans Nova';letter-spacing:0px;word-spacing:0px;fill:#000000;fill-opacity:1;stroke:none;stroke-width:0.26458332"
       id="text12-8-3">
      <path
         d="m 105.04312,31.755116 3.00412,-3.672472 h 1.66743 l -3.83784,4.643989 4.10656,4.981608 h -1.66743 l -3.27284,-3.982531 q -1.68121,2.018826 -3.31418,3.982531 h -1.68121 l 4.1479,-4.981608 -3.85162,-4.643989 h 1.68121 z"
         style="stroke-width:0.26458332"
         id="path447" />
      <path
         d="m 111.7335,31.651763 h -0.7786 l -0.31005,-1.887912 v -1.681207 h 1.41249 v 1.681207 z"
         style="stroke-width:0.26458332"
         id="path449" />
      <path
         d="m 106.87591,45.721532 h 1.66743 l -3.55534,4.533746 v 5.091851 h -1.41249 v -5.091851 l -3.55534,-4.533746 h 1.66743 l 2.57693,3.321072 z"
         style="stroke-width:0.26458332"
         id="path451" />
      <path
         d="m 110.24521,49.290651 h -0.77859 l -0.31006,-1.887912 v -1.681207 h 1.41249 v 1.681207 z"
         style="stroke-width:0.26458332"
         id="path453" />
    </g>
  </g>
</svg>
