<?xml version="1.0" encoding="UTF-8" standalone="no"?>
<!-- Created with Inkscape (http://www.inkscape.org/) -->

<svg
   xmlns:dc="http://purl.org/dc/elements/1.1/"
   xmlns:cc="http://creativecommons.org/ns#"
   xmlns:rdf="http://www.w3.org/1999/02/22-rdf-syntax-ns#"
   xmlns:svg="http://www.w3.org/2000/svg"
   xmlns="http://www.w3.org/2000/svg"
   xmlns:sodipodi="http://sodipodi.sourceforge.net/DTD/sodipodi-0.dtd"
   xmlns:inkscape="http://www.inkscape.org/namespaces/inkscape"
   width="91.029472mm"
   height="33.321285mm"
   viewBox="0 0 91.029472 33.321285"
   version="1.1"
   id="svg8"
   inkscape:version="0.92.4 (5da689c313, 2019-01-14)"
   sodipodi:docname="matrix3.svg">
  <defs
     id="defs2" />
  <sodipodi:namedview
     id="base"
     pagecolor="#ffffff"
     bordercolor="#666666"
     borderopacity="1.0"
     inkscape:pageopacity="0.0"
     inkscape:pageshadow="2"
     inkscape:zoom="1.979899"
     inkscape:cx="206.09794"
     inkscape:cy="22.888484"
     inkscape:document-units="mm"
     inkscape:current-layer="layer1"
     showgrid="false"
     showguides="true"
     inkscape:guide-bbox="true"
     inkscape:window-width="1366"
     inkscape:window-height="705"
     inkscape:window-x="-8"
     inkscape:window-y="-8"
     inkscape:window-maximized="1" />
  <metadata
     id="metadata5">
    <rdf:RDF>
      <cc:Work
         rdf:about="">
        <dc:format>image/svg+xml</dc:format>
        <dc:type
           rdf:resource="http://purl.org/dc/dcmitype/StillImage" />
        <dc:title />
      </cc:Work>
    </rdf:RDF>
  </metadata>
  <g
     inkscape:label="Layer 1"
     inkscape:groupmode="layer"
     id="layer1"
     transform="translate(-24.420412,-24.842694)">
    <g
       aria-label="A B
C D"
       style="font-style:normal;font-variant:normal;font-weight:normal;font-stretch:normal;font-size:14.11111069px;line-height:1.25;font-family:'Gill Sans Nova';-inkscape-font-specification:'Gill Sans Nova';letter-spacing:0px;word-spacing:0px;fill:#000000;fill-opacity:1;stroke:none;stroke-width:0.26458332"
       id="text12">
      <path
         d="m 47.863243,37.748817 -1.281576,-2.838758 h -4.092773 l -1.212674,2.838758 h -1.412489 l 4.134115,-9.680718 h 0.971517 l 4.306369,9.680718 z m -3.396864,-7.565429 -1.44005,3.486437 h 2.990343 z"
         style="stroke-width:0.26458332"
         id="path344" />
      <path
         d="m 60.01754,30.62436 q 0,1.42627 -1.467611,2.032606 1.06109,0.192926 1.681207,0.875055 0.620117,0.675238 0.620117,1.591634 0,0.902615 -0.502984,1.495171 -0.496094,0.592557 -1.295356,0.861274 -0.799262,0.268717 -1.715657,0.268717 h -3.073025 v -9.625596 h 2.776746 q 1.42627,0 2.197971,0.695909 0.778592,0.689019 0.778592,1.80523 z m -1.42627,0.110243 q 0,-0.73036 -0.413411,-1.061089 -0.413412,-0.337619 -1.364258,-0.337619 h -1.185113 v 2.935221 h 0.978407 q 1.012858,0 1.495172,-0.434082 0.489203,-0.440972 0.489203,-1.102431 z m 0.833713,4.265028 q 0,-1.543402 -2.397786,-1.543402 h -1.398709 v 3.079915 h 1.453831 q 1.198893,0 1.770779,-0.37207 0.571885,-0.378961 0.571885,-1.164443 z"
         style="stroke-width:0.26458332"
         id="path346" />
      <path
         d="m 49.075916,46.430458 v 1.44694 q -1.701877,-0.957737 -3.327962,-0.957737 -1.129991,0 -1.998155,0.516765 -0.868164,0.516764 -1.343587,1.364257 -0.468533,0.840604 -0.468533,1.80523 0,0.957737 0.454752,1.79145 0.461643,0.833713 1.322917,1.336697 0.861274,0.496094 2.018826,0.496094 1.81901,0 3.445095,-1.07487 v 1.515842 q -1.584744,0.840603 -3.500217,0.840603 -1.681206,0 -2.852539,-0.73036 -1.171332,-0.73725 -1.750108,-1.860351 -0.578776,-1.129992 -0.578776,-2.328885 0,-1.384928 0.695909,-2.52181 0.7028,-1.136881 1.901693,-1.784559 1.198893,-0.647678 2.611382,-0.647678 1.619195,0 3.369303,0.792372 z"
         style="stroke-width:0.26458332"
         id="path348" />
      <path
         d="m 63.63489,50.461219 q 0,1.467611 -0.661459,2.583822 -0.654568,1.116211 -1.832791,1.729438 -1.178222,0.613227 -2.687174,0.613227 h -3.665581 v -9.625597 h 3.651801 q 1.577853,0 2.749186,0.606337 1.171332,0.606337 1.80523,1.674316 0.640788,1.06798 0.640788,2.418457 z m -1.42627,0.04134 q 0,-1.605415 -1.026638,-2.556261 -1.019749,-0.957737 -2.997233,-0.957737 h -2.018826 v 7.158908 h 2.218641 q 1.819011,0 2.818088,-0.957736 1.005968,-0.964627 1.005968,-2.687174 z"
         style="stroke-width:0.26458332"
         id="path350" />
    </g>
    <g
       aria-label="[      ]"
       transform="scale(0.6201252,1.6125776)"
       style="font-style:normal;font-variant:normal;font-weight:normal;font-stretch:normal;font-size:22.75526237px;line-height:1.25;font-family:'Gill Sans Nova';-inkscape-font-specification:'Gill Sans Nova';letter-spacing:0px;word-spacing:0px;fill:#000000;fill-opacity:1;stroke:none;stroke-width:0.42666107"
       id="text18">
      <path
         d="m 60.747849,17.415742 v 16.888671 h 3.111071 v 1.822199 H 58.558989 V 15.571321 h 5.299931 v 1.844421 z"
         style="stroke-width:0.42666107"
         id="path339" />
      <path
         d="m 102.41398,36.126612 v -1.822199 h 3.08885 V 17.39352 h -3.08885 v -1.822199 h 5.27771 v 20.555291 z"
         style="stroke-width:0.42666107"
         id="path341" />
    </g>
    <g
       aria-label="adj"
       style="font-style:normal;font-variant:normal;font-weight:normal;font-stretch:normal;font-size:8.46666622px;line-height:1.25;font-family:'Gill Sans Nova';-inkscape-font-specification:'Gill Sans Nova';letter-spacing:0px;word-spacing:0px;fill:#000000;fill-opacity:1;stroke:none;stroke-width:0.26458332"
       id="text84">
      <path
         d="m 28.729188,40.546917 v 1.914095 q 0,0.177767 0.144694,0.177767 0.124023,0 0.396875,-0.202572 v 0.541569 q -0.44235,0.293522 -0.789616,0.293522 -0.42168,0 -0.51263,-0.388607 -0.49196,0.388607 -1.025261,0.388607 -0.401009,0 -0.669726,-0.272851 -0.264583,-0.276986 -0.264583,-0.657325 0,-0.37207 0.235644,-0.624251 0.239779,-0.256315 0.578776,-0.405143 0.338998,-0.148828 0.888835,-0.326595 l 0.264583,-0.08268 v -0.21084 q 0,-0.347266 -0.169499,-0.504362 -0.169498,-0.157096 -0.516764,-0.157096 -0.322461,0 -0.632519,0.157096 -0.310059,0.157096 -0.570508,0.471289 v -0.822689 q 0.438216,-0.516764 1.260905,-0.516764 0.644922,0 1.012858,0.334863 0.367936,0.334863 0.367936,0.892969 z m -1.413867,2.19108 q 0.330729,0 0.661458,-0.310058 v -1.112077 q -0.65319,0.214974 -0.930176,0.417546 -0.272851,0.202571 -0.272851,0.471289 0,0.23151 0.148828,0.384472 0.152962,0.148828 0.392741,0.148828 z"
         style="font-size:8.46666622px;stroke-width:0.26458332"
         id="path332" />
      <path
         d="m 31.4391,43.196884 q -0.686263,0 -1.124479,-0.28112 -0.434082,-0.285254 -0.63252,-0.711067 -0.198437,-0.429948 -0.198437,-0.888835 0,-0.624251 0.256315,-1.07487 0.260449,-0.454752 0.690397,-0.686263 0.434082,-0.235644 0.930176,-0.235644 0.401009,0 0.822688,0.152962 v -2.050521 h 0.752409 v 5.775358 z m 0.152962,-0.661458 H 32.18324 V 40.15831 q -0.330729,-0.177767 -0.752409,-0.177767 -0.525032,0 -0.855761,0.355534 -0.330729,0.355534 -0.330729,0.988053 0,0.578776 0.351399,0.897103 0.3514,0.314193 0.996322,0.314193 z"
         style="font-size:8.46666622px;stroke-width:0.26458332"
         id="path334" />
      <path
         d="m 34.851811,38.235947 q 0,0.202572 -0.124023,0.326595 -0.124023,0.119889 -0.326595,0.119889 -0.186035,0 -0.314193,-0.136426 -0.124023,-0.140559 -0.124023,-0.310058 0,-0.169499 0.128157,-0.305925 0.132292,-0.136425 0.310059,-0.136425 0.194303,0 0.322461,0.136425 0.128157,0.136426 0.128157,0.305925 z m -0.81442,6.908105 -0.566374,-0.549837 q 0.297657,-0.11989 0.434082,-0.338998 0.14056,-0.219108 0.14056,-0.719335 v -4.142383 h 0.752409 v 4.101041 q 0,0.500228 -0.06615,0.789616 -0.06615,0.293522 -0.227376,0.487826 -0.161231,0.194303 -0.467155,0.37207 z"
         style="font-size:8.46666622px;stroke-width:0.26458332"
         id="path336" />
    </g>
    <g
       aria-label="="
       style="font-style:normal;font-variant:normal;font-weight:normal;font-stretch:normal;font-size:14.11111069px;line-height:1.25;font-family:'Gill Sans Nova';-inkscape-font-specification:'Gill Sans Nova';letter-spacing:0px;word-spacing:0px;fill:#000000;fill-opacity:1;stroke:none;stroke-width:0.26458332"
       id="text88">
      <path
         d="m 75.644347,40.344921 h -6.49056 v -1.240234 h 6.49056 z m 0,3.355523 h -6.49056 v -1.240235 h 6.49056 z"
         style="stroke-width:0.26458332"
         id="path329" />
    </g>
    <g
       aria-label="D -B
-C A"
       style="font-style:normal;font-variant:normal;font-weight:normal;font-stretch:normal;font-size:14.11111069px;line-height:1.25;font-family:'Gill Sans Nova';-inkscape-font-specification:'Gill Sans Nova';letter-spacing:0px;word-spacing:0px;fill:#000000;fill-opacity:1;stroke:none;stroke-width:0.26458332"
       id="text94">
      <path
         d="m 90.803068,32.822331 q 0,1.467611 -0.661458,2.583822 -0.654568,1.11621 -1.832791,1.729437 -1.178223,0.613227 -2.687174,0.613227 h -3.665582 v -9.625596 h 3.651801 q 1.577854,0 2.749186,0.606337 1.171333,0.606337 1.80523,1.674316 0.640788,1.06798 0.640788,2.418457 z m -1.426269,0.04134 q 0,-1.605414 -1.026639,-2.556261 -1.019748,-0.957736 -2.997233,-0.957736 h -2.018826 v 7.158908 h 2.218642 q 1.81901,0 2.818088,-0.957736 1.005968,-0.964627 1.005968,-2.687175 z"
         style="stroke-width:0.26458332"
         id="path316" />
      <path
         d="m 95.92937,35.29591 v -1.343588 h 3.431315 v 1.343588 z"
         style="stroke-width:0.26458332"
         id="path318" />
      <path
         d="m 106.75386,30.62436 q 0,1.42627 -1.46761,2.032606 1.06109,0.192926 1.68121,0.875055 0.62011,0.675238 0.62011,1.591634 0,0.902615 -0.50298,1.495171 -0.4961,0.592557 -1.29536,0.861274 -0.79926,0.268717 -1.71565,0.268717 h -3.07303 v -9.625596 h 2.77675 q 1.42627,0 2.19797,0.695909 0.77859,0.689019 0.77859,1.80523 z m -1.42627,0.110243 q 0,-0.73036 -0.41341,-1.061089 -0.41341,-0.337619 -1.36426,-0.337619 h -1.18511 v 2.935221 h 0.9784 q 1.01286,0 1.49518,-0.434082 0.4892,-0.440972 0.4892,-1.102431 z m 0.83371,4.265028 q 0,-1.543402 -2.39778,-1.543402 h -1.39871 v 3.079915 h 1.45383 q 1.19889,0 1.77078,-0.37207 0.57188,-0.378961 0.57188,-1.164443 z"
         style="stroke-width:0.26458332"
         id="path320" />
      <path
         d="m 81.459969,52.934798 v -1.343587 h 3.431315 v 1.343587 z"
         style="stroke-width:0.26458332"
         id="path322" />
      <path
         d="m 94.682245,46.430458 v 1.44694 q -1.701877,-0.957737 -3.327962,-0.957737 -1.129991,0 -1.998155,0.516765 -0.868164,0.516764 -1.343587,1.364257 -0.468533,0.840604 -0.468533,1.80523 0,0.957737 0.454752,1.79145 0.461643,0.833713 1.322917,1.336697 0.861274,0.496094 2.018826,0.496094 1.81901,0 3.445095,-1.07487 v 1.515842 q -1.584744,0.840603 -3.500217,0.840603 -1.681206,0 -2.852539,-0.73036 -1.171332,-0.73725 -1.750108,-1.860351 -0.578776,-1.129992 -0.578776,-2.328885 0,-1.384928 0.695909,-2.52181 0.7028,-1.136881 1.901693,-1.784559 1.198893,-0.647678 2.611382,-0.647678 1.619195,0 3.369303,0.792372 z"
         style="stroke-width:0.26458332"
         id="path324" />
      <path
         d="m 107.33264,55.387706 -1.28158,-2.838759 h -4.09277 l -1.21268,2.838759 h -1.412486 l 4.134116,-9.680718 h 0.97152 l 4.30636,9.680718 z m -3.39687,-7.56543 -1.44005,3.486437 h 2.99034 z"
         style="stroke-width:0.26458332"
         id="path326" />
    </g>
    <g
       aria-label="[       ]"
       transform="scale(0.6201252,1.6125776)"
       style="font-style:normal;font-variant:normal;font-weight:normal;font-stretch:normal;font-size:22.75526237px;line-height:1.25;font-family:'Gill Sans Nova';-inkscape-font-specification:'Gill Sans Nova';letter-spacing:0px;word-spacing:0px;fill:#000000;fill-opacity:1;stroke:none;stroke-width:0.42666107"
       id="text98">
      <path
         d="m 127.76724,17.415742 v 16.888671 h 3.11107 v 1.822199 h -5.29993 V 15.571321 h 5.29993 v 1.844421 z"
         style="stroke-width:0.42666107"
         id="path311" />
      <path
         d="m 175.7444,36.126612 v -1.822199 h 3.08885 V 17.39352 h -3.08885 v -1.822199 h 5.27771 v 20.555291 z"
         style="stroke-width:0.42666107"
         id="path313" />
    </g>
  </g>
</svg>
